# xmcd
#
# Track frame offsets:
#	150
#	9640
#	23677
#	36486
#	47771
#	60568
#	72279
#	84466
#	98209
#	112855
#	125807
#	138731
#	150045
#	162610
#	175063
#
# Disc length: 2499 seconds
#
# Revision: 1
# Processed by: cddbd v1.5.2PL0 Copyright (c) Steve Scherf et al.
# Submitted via: EasyCDDAExtractor 12.0.5.1
#
DISCID=c309c10f
DTITLE=Various Artist - Golden Age of Country - Don't Worry Disc 2
DYEAR=2009
DGENRE=Country
TTITLE0=Jim Reeves - Billy Bayou
TTITLE1=Lefty Frizzell - Always Late (With Your Kisses)
TTITLE2=Elvis Presley - Don't
TTITLE3=Stonewall Jackson - Life to Go
TTITLE4=Hank Snow, the Singing Ranger and His Rainbow Ranch Boys - The Rhumba 
TTITLE4=Boogie
TTITLE5=Ray Price - My Shoes Keep Walking Back to You
TTITLE6=Eddy Arnold - I Want to Go with You
TTITLE7=Johnny Cash - Don't Take Your Guns to Town
TTITLE8=Porter Wagoner - The Cold Hard Facts of Life
TTITLE9=Tammy Wynette - Take Me to Your World
TTITLE10=Connie Smith - The Hurtin's All Over
TTITLE11=Marty Robbins - Begging to You
TTITLE12="Little" Jimmy Dickens - A-Sleeping at the Foot of the Bed
TTITLE13=Jim Edward, Maxine and Bonnie Brown - I Take the Chance
TTITLE14=Homer and Jethro - (How Much Is) That Hound Dog in the Window
EXTD=
EXTT0=
EXTT1=
EXTT2=
EXTT3=
EXTT4=
EXTT5=
EXTT6=
EXTT7=
EXTT8=
EXTT9=
EXTT10=
EXTT11=
EXTT12=
EXTT13=
EXTT14=
PLAYORDER=
